# xmcd
#
# Track frame offsets:
#	150
#	47891
#	64465
#	84161
#	95215
#	125735
#	151951
#	168189
#	197034
#	214206
#
# Disc length: 3255 seconds
#
# Revision: 0
# Processed by: cddbd v1.5.2PL0 Copyright (c) Steve Scherf et al.
# Submitted via: EZCDAudioConverter 2.1.7.1
#
DISCID=8f0cb50a
DTITLE=King Crimson - Radical Action 1/3
DYEAR=1900
DGENRE=
TTITLE0=Larks' Tongues In Aspic (Part 1)
TTITLE1=Radical Action (To Unseat The Hold Of Monkey Mind)
TTITLE2=Meltdown
TTITLE3=Radical Action II
TTITLE4=Level Five
TTITLE5=The Light Of Day
TTITLE6=The Hell Hounds Of Krim
TTITLE7=The ConstruKction Of Light
TTITLE8=The Talking Drum
TTITLE9=Larks' Tongues In Aspic (Part 2)
EXTD=
EXTT0=
EXTT1=
EXTT2=
EXTT3=
EXTT4=
EXTT5=
EXTT6=
EXTT7=
EXTT8=
EXTT9=
PLAYORDER=
